<svg width="32" height="32" viewBox="0 0 32 32" fill="none" xmlns="http://www.w3.org/2000/svg">
<path d="M16.0008 26.1778C15.3595 26.097 14.7697 26.3626 14.1537 26.4526C13.7711 26.5085 13.3903 26.6053 13.0065 26.6179C12.2149 26.6439 11.4175 26.6787 10.6303 26.6145C9.07743 26.4878 7.58304 26.0886 6.14504 25.4838C4.96101 24.9858 3.86151 24.3387 2.8521 23.5504C2.07376 22.9426 1.37649 22.2414 0.760409 21.4666C0.50267 21.1425 0.273548 20.7956 0.0157075 20.4799C0 20.2699 0 20.0391 0 19.7795C0.539349 19.5951 1.07354 19.417 1.61977 19.2912C2.01513 19.2001 2.42557 19.1697 2.83092 19.1282C3.22027 19.0884 3.61172 19.0692 4.03453 19.0386C3.88969 18.8 3.75023 18.555 3.5963 18.3193C2.69114 16.9336 2.05751 15.4262 1.64354 13.8311C1.49363 13.2535 1.43651 12.6476 1.38338 12.0504C1.34594 11.6297 1.64539 11.4342 2.0673 11.5341C2.25372 11.5783 2.44645 11.5959 2.66255 11.656C2.90117 13.0557 3.3465 14.3524 3.95598 15.5898C4.88798 17.4821 6.12439 19.1488 7.67251 20.5916C8.89262 21.7287 10.2381 22.6755 11.7247 23.4199C12.9671 24.0421 14.2683 24.5103 15.6386 24.7635C15.9105 24.8138 16.0315 24.9163 16.0063 25.21C15.9789 25.5304 16.0006 25.8551 16.0008 26.1778Z" fill="#AA80FF"/>
<path d="M32 20.4719C31.9563 20.5278 31.9009 20.5455 31.8706 20.5834C31.3608 21.2199 30.9041 21.908 30.3352 22.4857C29.5066 23.3271 28.5683 24.0465 27.5346 24.6379C26.2534 25.3707 24.9126 25.9542 23.467 26.2525C22.6227 26.4267 21.7614 26.5357 20.9023 26.615C20.303 26.6703 19.6877 26.682 19.0915 26.612C18.2694 26.5154 17.4584 26.3233 16.6566 26.1482C17.1098 26.0469 17.5524 25.9851 17.9876 25.8895C20.1115 25.423 22.0286 24.4985 23.7817 23.2266C25.0563 22.3019 26.1795 21.2143 27.1739 19.9933C27.4285 19.6807 27.6867 19.371 27.9432 19.06C29.165 19.0618 30.3658 19.2174 31.5373 19.5686C31.6893 19.6142 31.8241 19.7167 31.9834 19.7718C32 19.9815 32 20.2123 32 20.4719Z" fill="#AA80FF"/>
<path d="M27.9474 19.039C27.6867 19.3711 27.4285 19.6808 27.1739 19.9934C26.1795 21.2144 25.0563 22.3019 23.7816 23.2267C22.0286 24.4986 20.1115 25.4231 17.9876 25.8896C17.5524 25.9851 17.1098 26.047 16.6446 26.1271C16.4307 26.1489 16.2428 26.1679 16.0278 26.1824C16.0005 25.8551 15.9788 25.5304 16.0063 25.21C16.0315 24.9163 15.9105 24.8138 15.6386 24.7635C14.2683 24.5103 12.967 24.0421 11.7246 23.4199C10.2381 22.6755 8.89261 21.7287 7.6725 20.5916C6.12438 19.1488 4.88797 17.4821 3.95597 15.5898C3.34648 14.3524 2.90116 13.0557 2.68839 11.6613C3.67072 11.7667 4.61555 12.0424 5.52315 12.4311C6.19696 12.7197 6.84936 13.0583 7.54463 13.3915C7.65014 13.4666 7.71665 13.5341 7.79532 13.5813C9.34879 14.5144 10.7378 15.6446 11.9278 17.015C12.094 17.2064 12.2685 17.3906 12.4689 17.6108C12.4856 17.5181 12.4992 17.4798 12.4982 17.442C12.4777 16.6742 12.4287 15.9059 12.4415 15.1387C12.453 14.4454 12.5092 13.7507 12.5877 13.0615C12.6475 12.5366 12.773 12.0193 12.8693 11.4986C13.075 10.8037 13.2156 10.0804 13.5019 9.42042C13.9268 8.44098 14.4396 7.49805 14.9474 6.55709C15.1242 6.22943 15.3801 5.93833 15.631 5.65836C15.9183 5.33759 16.2574 5.37823 16.5154 5.72771C16.5876 5.82552 16.663 5.92092 16.7345 6.05622C14.064 9.90943 13.3523 14.1463 14.0762 18.6683C14.3963 20.668 15.1132 22.5375 16.2287 24.3455C16.2924 24.119 16.3203 23.9882 16.3657 23.8638C16.7252 22.8788 17.0508 21.8792 17.4593 20.9147C17.9778 19.6902 18.7758 18.6281 19.5806 17.5542C19.926 17.1812 20.2432 16.8091 20.5824 16.4583C21.666 15.3377 22.8856 14.3868 24.2167 13.5768C24.3024 13.5247 24.3682 13.4402 24.4433 13.3707C24.9783 13.1153 25.5091 12.8505 26.0492 12.6063C27.0841 12.1385 28.1645 11.8113 29.2853 11.631C29.628 11.5759 29.9837 11.5472 30.3281 11.5743C30.606 11.5961 30.7098 11.8721 30.678 12.1032C30.4646 13.6511 30.0963 15.1613 29.3689 16.5549C28.931 17.3939 28.4262 18.1981 27.9474 19.039Z" fill="#BC9AFF"/>
<path d="M19.5625 17.565C18.7758 18.6281 17.9778 19.6903 17.4593 20.9147C17.0508 21.8792 16.7252 22.8788 16.3657 23.8639C16.3203 23.9883 16.2924 24.119 16.2287 24.3455C15.1132 22.5375 14.3963 20.6681 14.0762 18.6683C13.3523 14.1464 14.064 9.90949 16.7426 6.07642C17.2036 6.79353 17.6949 7.50781 18.0938 8.2704C18.6117 9.2603 18.9614 10.3216 19.2236 11.4515C19.2629 11.6307 19.2776 11.7744 19.294 11.9179C19.4247 13.057 19.6011 14.1933 19.6705 15.336C19.7154 16.0741 19.6039 16.8217 19.5625 17.565Z" fill="#CCB3FF"/>
<path d="M12.8492 11.4933C12.773 12.0192 12.6475 12.5366 12.5878 13.0614C12.5093 13.7506 12.453 14.4453 12.4415 15.1386C12.4287 15.9058 12.4777 16.6741 12.4982 17.4419C12.4993 17.4797 12.4856 17.518 12.469 17.6107C12.2685 17.3905 12.094 17.2063 11.9278 17.0149C10.7378 15.6445 9.34881 14.5143 7.79534 13.5812C7.71667 13.534 7.65016 13.4665 7.56719 13.3897C7.40581 12.3027 7.28423 11.2339 7.43508 10.1534C7.50693 9.63877 7.56669 9.12233 7.6236 8.6058C7.67171 8.16904 8.03245 7.84884 8.52836 8.12709C9.2223 8.51645 9.92821 8.89869 10.5667 9.36862C11.1918 9.82868 11.7436 10.3896 12.3173 10.9174C12.5044 11.0896 12.6594 11.2969 12.8492 11.4933Z" fill="#DCCBFF"/>
<path d="M19.5806 17.5542C19.6039 16.8215 19.7154 16.074 19.6705 15.3359C19.601 14.1931 19.4247 13.0569 19.294 11.9178C19.2776 11.7743 19.2629 11.6306 19.2468 11.4592C20.3051 10.1828 21.5564 9.16996 22.9872 8.37634C23.0921 8.31812 23.1872 8.24105 23.2947 8.1886C23.95 7.86868 24.3117 8.02564 24.4393 8.79301C24.6121 9.83289 24.6653 10.88 24.6191 11.9302C24.5986 12.3957 24.5141 12.8583 24.451 13.3464C24.3682 13.4401 24.3024 13.5246 24.2167 13.5767C22.8856 14.3867 21.666 15.3376 20.5824 16.4583C20.2432 16.8091 19.926 17.1812 19.5806 17.5542Z" fill="#DCCBFF"/>
</svg>
